<?xml version="1.0" standalone="no"?>
<!DOCTYPE svg PUBLIC "-//W3C//DTD SVG 20010904//EN"
 "http://www.w3.org/TR/2001/REC-SVG-20010904/DTD/svg10.dtd">
<svg version="1.0" xmlns="http://www.w3.org/2000/svg"
 width="612.000000pt" height="612.000000pt" viewBox="0 0 612.000000 612.000000"
 preserveAspectRatio="xMidYMid meet">

<g transform="translate(0.000000,612.000000) scale(0.100000,-0.100000)"
fill="#000000" stroke="none">
<path d="M2019 4384 c-67 -20 -139 -73 -176 -128 -66 -97 -63 -46 -63 -1165 0
-1084 -1 -1062 49 -1160 74 -143 265 -235 423 -202 151 31 260 125 309 269 18
53 19 99 19 1047 0 757 3 994 12 1003 7 7 22 12 34 12 18 0 53 -65 244 -457
123 -252 294 -600 379 -773 l156 -315 3 373 2 372 -237 488 c-264 540 -275
558 -398 617 -52 25 -72 29 -150 30 -81 0 -97 -3 -157 -32 -81 -38 -146 -102
-185 -181 l-28 -57 -5 -1018 c-5 -994 -5 -1019 -24 -1033 -26 -18 -71 -18 -90
1 -8 9 -18 30 -21 48 -3 18 -5 473 -3 1012 l3 980 23 65 c13 36 41 92 63 126
21 33 39 63 39 67 0 11 -74 27 -125 26 -27 0 -71 -7 -96 -15z"/>
<path d="M3848 4389 c-113 -26 -226 -120 -276 -227 l-27 -57 -5 -1012 c-4
-735 -8 -1015 -16 -1023 -37 -37 -44 -26 -369 640 -173 355 -342 699 -374 765
l-60 120 0 -376 -1 -376 79 -164 c248 -515 391 -798 419 -831 76 -85 204 -136
315 -123 128 14 249 101 303 218 l29 62 5 1011 c5 1106 2 1044 65 1044 70 0
65 75 65 -1041 0 -895 -2 -1011 -16 -1060 -20 -68 -55 -137 -89 -178 l-27 -31
29 -12 c15 -6 64 -11 108 -12 67 0 89 4 136 27 70 34 132 96 167 167 l27 55 3
1030 c3 1153 6 1099 -68 1213 -90 139 -262 209 -422 171z"/>
</g>
</svg>
